<svg xmlns="http://www.w3.org/2000/svg" viewBox="0 0 121.9 140.9"><title>&#x8D44;&#x6E90; 170</title><path fill="none" d="M54.7 24.2v62.7-62.7z"/><path fill="#455564" d="M103.5 46.7v48.2l-42.1 25v21l60.5-35.9V35.9l-18.4 10.8zM60.5 119.6L18.7 95.5l-.6-49L0 36l.7 70.3 59.9 34.6v-21.4l-.1.1z"/><path fill="#455564" d="M101 48.3l-2.9 1.6L89 55v30l-4.3 2.4L73 94l-11.8 6.5v13.1L101 91.3v-43zM60.7 100.3l-.1.1-12.4-6.8-11.7-6.4-3.4-1.8-.4-30.5L21.9 49l-1.1-.6.5 43.7 39.4 21.5v-13.3z"/><path fill="#f7be31" d="M54.7 3v83.9l5 2.9v-.1l.1.1 6.3-3.6V3.6L59.8 0l-5.1 3zM74.6 8.4v72.9l10.1-5.9V34.8l9.1 5.1 4.3 2.4 4.8 2.7 18.2-10.5L74.6 8.4zM18.4 45.3v-.2l3.4-1.9 5-2.9 9.7-5.6v41.7l10.6 6.1V7.4L0 34.6l18.4 10.7z"/></svg>